# xmcd
#
# Track frame offsets: 
#        150
#        11654
#        23354
#        31941
#        43949
#        56862
#        73860
#        87423
#        102843
#        119234
#        130321
#        150868
#        166619
#        184167
#        206952
#        225085
#        241940
#        260532
#
# Disc length: 3682 seconds
#
# Revision: 2
# Processed by: cddbd v1.5.2PL0 Copyright (c) Steve Scherf et al.
# Submitted via: ExactAudioCopy v1.0b1
#
DISCID=ed0e6012
DTITLE=Natalie Cole - Ibiza Chillout: Jazz Lounge
DYEAR=1900
DGENRE=Jazz
TTITLE0=L.O.V.E.
TTITLE1=Don't Get Around Much Anymore
TTITLE2=For Sentimental Reasons
TTITLE3=Tenderly
TTITLE4=Autumn Leaves
TTITLE5=Mona Lisa
TTITLE6=Rout 66
TTITLE7=Nature Boy
TTITLE8=Smile
TTITLE9=Orange Colored Sky
TTITLE10=Too Young
TTITLE11=I'm Beginning to See the Light
TTITLE12=Cry Me a River
TTITLE13=Calypso Blues
TTITLE14=Swinging Shepherd Blues
TTITLE15=As Time Goes By
TTITLE16=I Wish You Love
TTITLE17=Unforgettable
EXTD=
EXTT0=
EXTT1=
EXTT2=
EXTT3=
EXTT4=
EXTT5=
EXTT6=
EXTT7=
EXTT8=
EXTT9=
EXTT10=
EXTT11=
EXTT12=
EXTT13=
EXTT14=
EXTT15=
EXTT16=
EXTT17=
PLAYORDER=
